<svg id="visual" viewBox="0 0 900 600" width="900" height="600" xmlns="http://www.w3.org/2000/svg" xmlns:xlink="http://www.w3.org/1999/xlink" version="1.1"><g stroke-width="1" stroke-linejoin="bevel"><path d="M433 249L512 294L552 250Z" fill="#081a28" stroke="#081a28"></path><path d="M552 250L534 182L433 249Z" fill="#00101c" stroke="#00101c"></path><path d="M512 294L563 263L552 250Z" fill="#112e42" stroke="#112e42"></path><path d="M552 250L590 121L534 182Z" fill="#081a28" stroke="#081a28"></path><path d="M534 182L404 155L433 249Z" fill="#112e42" stroke="#112e42"></path><path d="M563 263L590 121L552 250Z" fill="#00101c" stroke="#00101c"></path><path d="M534 182L511 65L404 155Z" fill="#246688" stroke="#246688"></path><path d="M342 333L446 393L433 249Z" fill="#297ea6" stroke="#297ea6"></path><path d="M433 249L446 393L512 294Z" fill="#205a7a" stroke="#205a7a"></path><path d="M512 294L577 404L563 263Z" fill="#246688" stroke="#246688"></path><path d="M590 121L511 65L534 182Z" fill="#1d4e6b" stroke="#1d4e6b"></path><path d="M277 202L342 333L433 249Z" fill="#15384f" stroke="#15384f"></path><path d="M446 393L577 404L512 294Z" fill="#081a28" stroke="#081a28"></path><path d="M563 263L711 253L590 121Z" fill="#081a28" stroke="#081a28"></path><path d="M511 65L441 51L404 155Z" fill="#246688" stroke="#246688"></path><path d="M342 333L360 399L446 393Z" fill="#205a7a" stroke="#205a7a"></path><path d="M446 393L508 505L577 404Z" fill="#19435d" stroke="#19435d"></path><path d="M257 127L277 202L404 155Z" fill="#246688" stroke="#246688"></path><path d="M404 155L277 202L433 249Z" fill="#0c2435" stroke="#0c2435"></path><path d="M342 333L253 416L360 399Z" fill="#112e42" stroke="#112e42"></path><path d="M725 342L711 253L563 263Z" fill="#19435d" stroke="#19435d"></path><path d="M360 399L426 461L446 393Z" fill="#277297" stroke="#277297"></path><path d="M549 0L477 0L511 65Z" fill="#277297" stroke="#277297"></path><path d="M511 65L477 0L441 51Z" fill="#277297" stroke="#277297"></path><path d="M248 50L257 127L404 155Z" fill="#112e42" stroke="#112e42"></path><path d="M477 0L446 0L441 51Z" fill="#1d4e6b" stroke="#1d4e6b"></path><path d="M590 121L549 0L511 65Z" fill="#00101c" stroke="#00101c"></path><path d="M741 0L549 0L590 121Z" fill="#0c2435" stroke="#0c2435"></path><path d="M577 404L725 342L563 263Z" fill="#0c2435" stroke="#0c2435"></path><path d="M248 50L404 155L441 51Z" fill="#246688" stroke="#246688"></path><path d="M426 461L508 505L446 393Z" fill="#246688" stroke="#246688"></path><path d="M577 404L719 396L725 342Z" fill="#277297" stroke="#277297"></path><path d="M773 214L736 116L711 253Z" fill="#205a7a" stroke="#205a7a"></path><path d="M711 253L736 116L590 121Z" fill="#277297" stroke="#277297"></path><path d="M579 532L719 396L577 404Z" fill="#277297" stroke="#277297"></path><path d="M257 127L213 245L277 202Z" fill="#0c2435" stroke="#0c2435"></path><path d="M277 202L213 245L342 333Z" fill="#205a7a" stroke="#205a7a"></path><path d="M837 262L711 253L725 342Z" fill="#081a28" stroke="#081a28"></path><path d="M837 262L773 214L711 253Z" fill="#297ea6" stroke="#297ea6"></path><path d="M198 341L253 416L342 333Z" fill="#081a28" stroke="#081a28"></path><path d="M360 399L261 461L426 461Z" fill="#00101c" stroke="#00101c"></path><path d="M426 461L466 600L508 505Z" fill="#1d4e6b" stroke="#1d4e6b"></path><path d="M256 0L248 50L441 51Z" fill="#19435d" stroke="#19435d"></path><path d="M257 127L133 210L213 245Z" fill="#081a28" stroke="#081a28"></path><path d="M579 600L579 532L508 505Z" fill="#205a7a" stroke="#205a7a"></path><path d="M508 505L579 532L577 404Z" fill="#19435d" stroke="#19435d"></path><path d="M213 245L198 341L342 333Z" fill="#00101c" stroke="#00101c"></path><path d="M159 457L261 461L253 416Z" fill="#297ea6" stroke="#297ea6"></path><path d="M253 416L261 461L360 399Z" fill="#205a7a" stroke="#205a7a"></path><path d="M446 0L256 0L441 51Z" fill="#277297" stroke="#277297"></path><path d="M110 131L133 210L257 127Z" fill="#246688" stroke="#246688"></path><path d="M773 214L814 119L736 116Z" fill="#205a7a" stroke="#205a7a"></path><path d="M736 116L741 0L590 121Z" fill="#246688" stroke="#246688"></path><path d="M837 262L814 119L773 214Z" fill="#0c2435" stroke="#0c2435"></path><path d="M814 119L741 0L736 116Z" fill="#19435d" stroke="#19435d"></path><path d="M818 367L837 262L725 342Z" fill="#205a7a" stroke="#205a7a"></path><path d="M754 498L818 367L719 396Z" fill="#277297" stroke="#277297"></path><path d="M719 396L818 367L725 342Z" fill="#205a7a" stroke="#205a7a"></path><path d="M110 131L257 127L248 50Z" fill="#205a7a" stroke="#205a7a"></path><path d="M213 245L106 315L198 341Z" fill="#1d4e6b" stroke="#1d4e6b"></path><path d="M346 600L466 600L426 461Z" fill="#19435d" stroke="#19435d"></path><path d="M579 532L754 498L719 396Z" fill="#00101c" stroke="#00101c"></path><path d="M695 600L754 498L579 532Z" fill="#1d4e6b" stroke="#1d4e6b"></path><path d="M466 600L579 600L508 505Z" fill="#19435d" stroke="#19435d"></path><path d="M127 405L157 438L198 341Z" fill="#0c2435" stroke="#0c2435"></path><path d="M198 341L157 438L253 416Z" fill="#19435d" stroke="#19435d"></path><path d="M261 461L346 600L426 461Z" fill="#297ea6" stroke="#297ea6"></path><path d="M316 600L346 600L261 461Z" fill="#246688" stroke="#246688"></path><path d="M133 210L106 315L213 245Z" fill="#277297" stroke="#277297"></path><path d="M151 0L110 131L248 50Z" fill="#00101c" stroke="#00101c"></path><path d="M133 210L0 252L106 315Z" fill="#19435d" stroke="#19435d"></path><path d="M148 453L159 457L157 438Z" fill="#205a7a" stroke="#205a7a"></path><path d="M157 438L159 457L253 416Z" fill="#0c2435" stroke="#0c2435"></path><path d="M106 315L127 405L198 341Z" fill="#19435d" stroke="#19435d"></path><path d="M155 600L316 600L261 461Z" fill="#277297" stroke="#277297"></path><path d="M127 405L148 453L157 438Z" fill="#205a7a" stroke="#205a7a"></path><path d="M159 457L155 600L261 461Z" fill="#205a7a" stroke="#205a7a"></path><path d="M900 293L900 240L837 262Z" fill="#277297" stroke="#277297"></path><path d="M837 262L900 240L814 119Z" fill="#1d4e6b" stroke="#1d4e6b"></path><path d="M814 119L840 0L741 0Z" fill="#277297" stroke="#277297"></path><path d="M900 293L837 262L818 367Z" fill="#277297" stroke="#277297"></path><path d="M900 429L900 293L818 367Z" fill="#277297" stroke="#277297"></path><path d="M256 0L151 0L248 50Z" fill="#0c2435" stroke="#0c2435"></path><path d="M579 600L695 600L579 532Z" fill="#19435d" stroke="#19435d"></path><path d="M900 466L900 429L818 367Z" fill="#112e42" stroke="#112e42"></path><path d="M763 600L788 530L754 498Z" fill="#297ea6" stroke="#297ea6"></path><path d="M900 65L840 0L814 119Z" fill="#297ea6" stroke="#297ea6"></path><path d="M151 0L137 0L110 131Z" fill="#00101c" stroke="#00101c"></path><path d="M900 240L900 65L814 119Z" fill="#00101c" stroke="#00101c"></path><path d="M900 466L818 367L754 498Z" fill="#15384f" stroke="#15384f"></path><path d="M695 600L763 600L754 498Z" fill="#277297" stroke="#277297"></path><path d="M788 530L900 466L754 498Z" fill="#1d4e6b" stroke="#1d4e6b"></path><path d="M900 600L900 466L788 530Z" fill="#00101c" stroke="#00101c"></path><path d="M900 65L900 0L840 0Z" fill="#19435d" stroke="#19435d"></path><path d="M106 315L0 424L127 405Z" fill="#205a7a" stroke="#205a7a"></path><path d="M122 600L159 457L148 453Z" fill="#246688" stroke="#246688"></path><path d="M0 135L0 252L133 210Z" fill="#205a7a" stroke="#205a7a"></path><path d="M0 135L133 210L110 131Z" fill="#246688" stroke="#246688"></path><path d="M0 252L0 272L106 315Z" fill="#15384f" stroke="#15384f"></path><path d="M122 600L155 600L159 457Z" fill="#277297" stroke="#277297"></path><path d="M122 600L148 453L0 518Z" fill="#1d4e6b" stroke="#1d4e6b"></path><path d="M0 0L0 135L110 131Z" fill="#15384f" stroke="#15384f"></path><path d="M0 424L148 453L127 405Z" fill="#1d4e6b" stroke="#1d4e6b"></path><path d="M0 272L0 424L106 315Z" fill="#15384f" stroke="#15384f"></path><path d="M763 600L900 600L788 530Z" fill="#277297" stroke="#277297"></path><path d="M137 0L0 0L110 131Z" fill="#112e42" stroke="#112e42"></path><path d="M0 424L0 518L148 453Z" fill="#297ea6" stroke="#297ea6"></path><path d="M0 518L0 600L122 600Z" fill="#00101c" stroke="#00101c"></path></g></svg>